# This file uses meters as units for non-parametric coordinates.

mtllib Naranja.mtl
g default
v 5.715623 -19.514356 -5.715623
v 0.000000 -19.514356 -8.083111
v -5.715623 -19.514356 -5.715623
v -8.083111 -19.514356 0.000000
v -5.715623 -19.514356 5.715623
v 0.000000 -19.514356 8.083111
v 5.715623 -19.514356 5.715623
v 8.083112 -19.514356 0.000000
v 10.561093 -14.935643 -10.561093
v 0.000000 -14.935643 -14.935641
v -10.561093 -14.935643 -10.561093
v -14.935641 -14.935643 0.000000
v -10.561093 -14.935643 10.561093
v 0.000000 -14.935643 14.935641
v 10.561094 -14.935643 10.561094
v 14.935643 -14.935643 0.000000
v 13.798733 -8.083111 -13.798733
v 0.000000 -8.083111 -19.514354
v -13.798733 -8.083111 -13.798733
v -19.514354 -8.083111 0.000000
v -13.798733 -8.083111 13.798733
v 0.000000 -8.083111 19.514354
v 13.798733 -8.083111 13.798733
v 19.514356 -8.083111 0.000000
v 14.935641 0.000000 -14.935641
v 0.000000 0.000000 -21.122185
v -14.935641 0.000000 -14.935641
v -21.122185 0.000000 0.000000
v -14.935641 0.000000 14.935641
v 0.000000 0.000000 21.122187
v 14.935643 0.000000 14.935643
v 21.122188 0.000000 0.000000
v 13.798733 8.083111 -13.798733
v 0.000000 8.083111 -19.514354
v -13.798733 8.083111 -13.798733
v -19.514354 8.083111 0.000000
v -13.798733 8.083111 13.798733
v 0.000000 8.083111 19.514354
v 13.798733 8.083111 13.798733
v 19.514356 8.083111 0.000000
v 10.561093 14.935643 -10.561093
v 0.000000 14.935643 -14.935641
v -10.561093 14.935643 -10.561093
v -14.935641 14.935643 0.000000
v -10.561093 14.935643 10.561093
v 0.000000 14.935643 14.935641
v 10.561094 14.935643 10.561094
v 14.935643 14.935643 0.000000
v 5.715623 19.514356 -5.715623
v 0.000000 19.514356 -8.083111
v -5.715623 19.514356 -5.715623
v -8.083111 19.514356 0.000000
v -5.715623 19.514356 5.715623
v 0.000000 19.514356 8.083111
v 5.715623 19.514356 5.715623
v 8.083112 19.514356 0.000000
v 0.000000 -21.122188 0.000000
v 0.000000 21.122188 0.000000
vt 0.013100 0.116470
vt 0.151288 0.116470
vt 0.151288 0.197418
vt 0.001715 0.197418
vt 0.045524 0.047845
vt 0.151288 0.047845
vt 0.289475 0.116470
vt 0.300860 0.197418
vt 0.151288 0.278367
vt 0.013100 0.278367
vt 0.094049 0.001992
vt 0.151288 0.001992
vt 0.257052 0.047845
vt 0.289475 0.278367
vt 0.151288 0.346991
vt 0.045524 0.346991
vt 0.208527 0.001992
vt 0.257052 0.346991
vt 0.151288 0.392845
vt 0.094049 0.392845
vt 0.208527 0.392845
vt 0.318632 0.116470
vt 0.456819 0.116470
vt 0.456819 0.197418
vt 0.307246 0.197418
vt 0.351055 0.047845
vt 0.456819 0.047845
vt 0.595006 0.116470
vt 0.606392 0.197418
vt 0.456819 0.278367
vt 0.318632 0.278367
vt 0.399580 0.001992
vt 0.456819 0.001992
vt 0.562583 0.047845
vt 0.595006 0.278367
vt 0.456819 0.346991
vt 0.351055 0.346991
vt 0.514058 0.001992
vt 0.562583 0.346991
vt 0.456819 0.392845
vt 0.399580 0.392845
vt 0.514058 0.392845
vt 0.720982 0.510759
vt 0.778221 0.534468
vt 0.720982 0.591707
vt 0.720982 0.442134
vt 0.826746 0.485943
vt 0.801930 0.591707
vt 0.663743 0.534468
vt 0.615218 0.485943
vt 0.720982 0.396281
vt 0.859169 0.453520
vt 0.778221 0.648946
vt 0.640033 0.591707
vt 0.582794 0.453520
vt 0.720982 0.672655
vt 0.663743 0.648946
vt 0.826746 0.697471
vt 0.720982 0.741280
vt 0.859169 0.729894
vt 0.720982 0.787133
vt 0.615218 0.697471
vt 0.582794 0.729894
vt 0.496565 0.648946
vt 0.439325 0.672655
vt 0.439325 0.591707
vt 0.545089 0.697471
vt 0.439325 0.741280
vt 0.382086 0.648946
vt 0.520274 0.591707
vt 0.577513 0.729894
vt 0.439325 0.787133
vt 0.333562 0.697471
vt 0.358377 0.591707
vt 0.496565 0.534468
vt 0.301138 0.729894
vt 0.382086 0.534468
vt 0.439325 0.510759
vt 0.439325 0.442134
vt 0.545089 0.485943
vt 0.333562 0.485943
vt 0.439325 0.396281
vt 0.577513 0.453520
vt 0.301138 0.453520
vt 0.295856 0.407666
vt 0.295856 0.545853
vt 0.214908 0.545853
vt 0.214908 0.396281
vt 0.295856 0.684041
vt 0.214908 0.695426
vt 0.133960 0.545853
vt 0.133960 0.407666
vt 0.133960 0.684041
vt 0.001715 0.986623
vt 0.001715 0.848435
vt 0.082663 0.848435
vt 0.082663 0.998008
vt 0.001715 0.710248
vt 0.082663 0.698863
vt 0.163611 0.848435
vt 0.163611 0.986623
vt 0.163611 0.710248
vn 0.224263 -0.810291 -0.541419
vn 0.224263 -0.810291 -0.541419
vn 0.224263 -0.810291 -0.541419
vn 0.224263 -0.810291 -0.541419
vn -0.224263 -0.810291 -0.541419
vn -0.224263 -0.810291 -0.541419
vn -0.224263 -0.810291 -0.541419
vn -0.224263 -0.810291 -0.541419
vn -0.541419 -0.810291 -0.224263
vn -0.541419 -0.810291 -0.224263
vn -0.541419 -0.810291 -0.224263
vn -0.541419 -0.810291 -0.224263
vn -0.541419 -0.810291 0.224263
vn -0.541419 -0.810291 0.224263
vn -0.541419 -0.810291 0.224263
vn -0.541419 -0.810291 0.224263
vn -0.224263 -0.810291 0.541419
vn -0.224263 -0.810291 0.541419
vn -0.224263 -0.810291 0.541419
vn -0.224263 -0.810291 0.541419
vn 0.224263 -0.810291 0.541419
vn 0.224263 -0.810291 0.541419
vn 0.224263 -0.810291 0.541419
vn 0.224263 -0.810291 0.541419
vn 0.541419 -0.810291 0.224263
vn 0.541419 -0.810291 0.224263
vn 0.541419 -0.810291 0.224263
vn 0.541419 -0.810291 0.224263
vn 0.541419 -0.810291 -0.224263
vn 0.541419 -0.810291 -0.224263
vn 0.541419 -0.810291 -0.224263
vn 0.541419 -0.810291 -0.224263
vn 0.325634 -0.525289 -0.786151
vn 0.325634 -0.525289 -0.786151
vn 0.325634 -0.525289 -0.786151
vn 0.325634 -0.525289 -0.786151
vn -0.325634 -0.525289 -0.786151
vn -0.325634 -0.525289 -0.786151
vn -0.325634 -0.525289 -0.786151
vn -0.325634 -0.525289 -0.786151
vn -0.786151 -0.525289 -0.325634
vn -0.786151 -0.525289 -0.325634
vn -0.786151 -0.525289 -0.325634
vn -0.786151 -0.525289 -0.325634
vn -0.786151 -0.525289 0.325634
vn -0.786151 -0.525289 0.325634
vn -0.786151 -0.525289 0.325634
vn -0.786151 -0.525289 0.325634
vn -0.325634 -0.525289 0.786151
vn -0.325634 -0.525289 0.786151
vn -0.325634 -0.525289 0.786151
vn -0.325634 -0.525289 0.786151
vn 0.325634 -0.525289 0.786151
vn 0.325634 -0.525289 0.786151
vn 0.325634 -0.525289 0.786151
vn 0.325634 -0.525289 0.786151
vn 0.786151 -0.525289 0.325634
vn 0.786151 -0.525289 0.325634
vn 0.786151 -0.525289 0.325634
vn 0.786151 -0.525289 0.325634
vn 0.786151 -0.525289 -0.325634
vn 0.786151 -0.525289 -0.325634
vn 0.786151 -0.525289 -0.325634
vn 0.786151 -0.525289 -0.325634
vn 0.376381 -0.180744 -0.908663
vn 0.376381 -0.180744 -0.908663
vn 0.376381 -0.180744 -0.908663
vn 0.376381 -0.180744 -0.908663
vn -0.376381 -0.180744 -0.908663
vn -0.376381 -0.180744 -0.908663
vn -0.376381 -0.180744 -0.908663
vn -0.376381 -0.180744 -0.908663
vn -0.908663 -0.180744 -0.376381
vn -0.908663 -0.180744 -0.376381
vn -0.908663 -0.180744 -0.376381
vn -0.908663 -0.180744 -0.376381
vn -0.908663 -0.180744 0.376381
vn -0.908663 -0.180744 0.376381
vn -0.908663 -0.180744 0.376381
vn -0.908663 -0.180744 0.376381
vn -0.376381 -0.180744 0.908663
vn -0.376381 -0.180744 0.908663
vn -0.376381 -0.180744 0.908663
vn -0.376381 -0.180744 0.908663
vn 0.376381 -0.180745 0.908663
vn 0.376381 -0.180745 0.908663
vn 0.376381 -0.180745 0.908663
vn 0.376381 -0.180745 0.908663
vn 0.908663 -0.180744 0.376381
vn 0.908663 -0.180744 0.376381
vn 0.908663 -0.180744 0.376381
vn 0.908663 -0.180744 0.376381
vn 0.908663 -0.180744 -0.376381
vn 0.908663 -0.180744 -0.376381
vn 0.908663 -0.180744 -0.376381
vn 0.908663 -0.180744 -0.376381
vn 0.376381 0.180744 -0.908663
vn 0.376381 0.180744 -0.908663
vn 0.376381 0.180744 -0.908663
vn 0.376381 0.180744 -0.908663
vn -0.376381 0.180744 -0.908663
vn -0.376381 0.180744 -0.908663
vn -0.376381 0.180744 -0.908663
vn -0.376381 0.180744 -0.908663
vn -0.908663 0.180744 -0.376381
vn -0.908663 0.180744 -0.376381
vn -0.908663 0.180744 -0.376381
vn -0.908663 0.180744 -0.376381
vn -0.908663 0.180744 0.376381
vn -0.908663 0.180744 0.376381
vn -0.908663 0.180744 0.376381
vn -0.908663 0.180744 0.376381
vn -0.376381 0.180744 0.908663
vn -0.376381 0.180744 0.908663
vn -0.376381 0.180744 0.908663
vn -0.376381 0.180744 0.908663
vn 0.376381 0.180745 0.908663
vn 0.376381 0.180745 0.908663
vn 0.376381 0.180745 0.908663
vn 0.376381 0.180745 0.908663
vn 0.908663 0.180744 0.376381
vn 0.908663 0.180744 0.376381
vn 0.908663 0.180744 0.376381
vn 0.908663 0.180744 0.376381
vn 0.908663 0.180744 -0.376381
vn 0.908663 0.180744 -0.376381
vn 0.908663 0.180744 -0.376381
vn 0.908663 0.180744 -0.376381
vn 0.325634 0.525289 -0.786151
vn 0.325634 0.525289 -0.786151
vn 0.325634 0.525289 -0.786151
vn 0.325634 0.525289 -0.786151
vn -0.325634 0.525289 -0.786151
vn -0.325634 0.525289 -0.786151
vn -0.325634 0.525289 -0.786151
vn -0.325634 0.525289 -0.786151
vn -0.786151 0.525289 -0.325634
vn -0.786151 0.525289 -0.325634
vn -0.786151 0.525289 -0.325634
vn -0.786151 0.525289 -0.325634
vn -0.786151 0.525289 0.325634
vn -0.786151 0.525289 0.325634
vn -0.786151 0.525289 0.325634
vn -0.786151 0.525289 0.325634
vn -0.325634 0.525289 0.786151
vn -0.325634 0.525289 0.786151
vn -0.325634 0.525289 0.786151
vn -0.325634 0.525289 0.786151
vn 0.325634 0.525289 0.786151
vn 0.325634 0.525289 0.786151
vn 0.325634 0.525289 0.786151
vn 0.325634 0.525289 0.786151
vn 0.786151 0.525289 0.325634
vn 0.786151 0.525289 0.325634
vn 0.786151 0.525289 0.325634
vn 0.786151 0.525289 0.325634
vn 0.786151 0.525289 -0.325634
vn 0.786151 0.525289 -0.325634
vn 0.786151 0.525289 -0.325634
vn 0.786151 0.525289 -0.325634
vn 0.224263 0.810291 -0.541419
vn 0.224263 0.810291 -0.541419
vn 0.224263 0.810291 -0.541419
vn 0.224263 0.810291 -0.541419
vn -0.224263 0.810291 -0.541419
vn -0.224263 0.810291 -0.541419
vn -0.224263 0.810291 -0.541419
vn -0.224263 0.810291 -0.541419
vn -0.541419 0.810291 -0.224263
vn -0.541419 0.810291 -0.224263
vn -0.541419 0.810291 -0.224263
vn -0.541419 0.810291 -0.224263
vn -0.541419 0.810291 0.224263
vn -0.541419 0.810291 0.224263
vn -0.541419 0.810291 0.224263
vn -0.541419 0.810291 0.224263
vn -0.224263 0.810291 0.541419
vn -0.224263 0.810291 0.541419
vn -0.224263 0.810291 0.541419
vn -0.224263 0.810291 0.541419
vn 0.224263 0.810291 0.541419
vn 0.224263 0.810291 0.541419
vn 0.224263 0.810291 0.541419
vn 0.224263 0.810291 0.541419
vn 0.541419 0.810291 0.224263
vn 0.541419 0.810291 0.224263
vn 0.541419 0.810291 0.224263
vn 0.541419 0.810291 0.224263
vn 0.541419 0.810291 -0.224263
vn 0.541419 0.810291 -0.224263
vn 0.541419 0.810291 -0.224263
vn 0.541419 0.810291 -0.224263
vn 0.080547 -0.977598 -0.194456
vn 0.080547 -0.977598 -0.194456
vn 0.080547 -0.977598 -0.194456
vn -0.080547 -0.977598 -0.194456
vn -0.080547 -0.977598 -0.194456
vn -0.080547 -0.977598 -0.194456
vn -0.194457 -0.977599 -0.080546
vn -0.194457 -0.977599 -0.080546
vn -0.194457 -0.977599 -0.080546
vn -0.194457 -0.977598 0.080546
vn -0.194457 -0.977598 0.080546
vn -0.194457 -0.977598 0.080546
vn -0.080547 -0.977598 0.194456
vn -0.080547 -0.977598 0.194456
vn -0.080547 -0.977598 0.194456
vn 0.080547 -0.977598 0.194456
vn 0.080547 -0.977598 0.194456
vn 0.080547 -0.977599 0.194456
vn 0.194457 -0.977598 0.080547
vn 0.194457 -0.977598 0.080547
vn 0.194457 -0.977598 0.080547
vn 0.194457 -0.977599 -0.080546
vn 0.194457 -0.977599 -0.080546
vn 0.194457 -0.977599 -0.080546
vn 0.080547 0.977598 -0.194456
vn 0.080547 0.977598 -0.194456
vn 0.080547 0.977598 -0.194456
vn -0.080547 0.977598 -0.194456
vn -0.080547 0.977598 -0.194456
vn -0.080547 0.977598 -0.194456
vn -0.194457 0.977598 -0.080546
vn -0.194457 0.977598 -0.080546
vn -0.194457 0.977598 -0.080546
vn -0.194457 0.977599 0.080546
vn -0.194457 0.977599 0.080546
vn -0.194457 0.977599 0.080546
vn -0.080547 0.977598 0.194456
vn -0.080547 0.977598 0.194456
vn -0.080547 0.977598 0.194456
vn 0.080547 0.977598 0.194456
vn 0.080547 0.977598 0.194456
vn 0.080547 0.977599 0.194456
vn 0.194457 0.977598 0.080546
vn 0.194457 0.977598 0.080546
vn 0.194457 0.977598 0.080546
vn 0.194457 0.977599 -0.080546
vn 0.194457 0.977599 -0.080546
vn 0.194457 0.977599 -0.080546
s off
g Naranja
usemtl initialShadingGroup
f 1/44/1 2/43/2 10/46/3 9/47/4
f 2/43/5 3/49/6 11/50/7 10/46/8
f 3/11/9 4/12/10 12/6/11 11/5/12
f 4/12/13 5/17/14 13/13/15 12/6/16
f 5/57/17 6/56/18 14/59/19 13/62/20
f 6/56/21 7/53/22 15/58/23 14/59/24
f 7/32/25 8/33/26 16/27/27 15/26/28
f 8/33/29 1/38/30 9/34/31 16/27/32
f 9/47/33 10/46/34 18/51/35 17/52/36
f 10/46/37 11/50/38 19/55/39 18/51/40
f 11/5/41 12/6/42 20/2/43 19/1/44
f 12/6/45 13/13/46 21/7/47 20/2/48
f 13/62/49 14/59/50 22/61/51 21/63/52
f 14/59/53 15/58/54 23/60/55 22/61/56
f 15/26/57 16/27/58 24/23/59 23/22/60
f 16/27/61 9/34/62 17/28/63 24/23/64
f 17/85/65 18/86/66 26/87/67 25/88/68
f 18/86/69 19/89/70 27/90/71 26/87/72
f 19/1/73 20/2/74 28/3/75 27/4/76
f 20/2/77 21/7/78 29/8/79 28/3/80
f 21/94/81 22/95/82 30/96/83 29/97/84
f 22/95/85 23/98/86 31/99/87 30/96/88
f 23/22/89 24/23/90 32/24/91 31/25/92
f 24/23/93 17/28/94 25/29/95 32/24/96
f 25/88/97 26/87/98 34/91/99 33/92/100
f 26/87/101 27/90/102 35/93/103 34/91/104
f 27/4/105 28/3/106 36/9/107 35/10/108
f 28/3/109 29/8/110 37/14/111 36/9/112
f 29/97/113 30/96/114 38/100/115 37/101/116
f 30/96/117 31/99/118 39/102/119 38/100/120
f 31/25/121 32/24/122 40/30/123 39/31/124
f 32/24/125 25/29/126 33/35/127 40/30/128
f 33/71/129 34/72/130 42/68/131 41/67/132
f 34/72/133 35/76/134 43/73/135 42/68/136
f 35/10/137 36/9/138 44/15/139 43/16/140
f 36/9/141 37/14/142 45/18/143 44/15/144
f 37/84/145 38/82/146 46/79/147 45/81/148
f 38/82/149 39/83/150 47/80/151 46/79/152
f 39/31/153 40/30/154 48/36/155 47/37/156
f 40/30/157 33/35/158 41/39/159 48/36/160
f 41/67/161 42/68/162 50/65/163 49/64/164
f 42/68/165 43/73/166 51/69/167 50/65/168
f 43/16/169 44/15/170 52/19/171 51/20/172
f 44/15/173 45/18/174 53/21/175 52/19/176
f 45/81/177 46/79/178 54/78/179 53/77/180
f 46/79/181 47/80/182 55/75/183 54/78/184
f 47/37/185 48/36/186 56/40/187 55/41/188
f 48/36/189 41/39/190 49/42/191 56/40/192
f 2/43/193 1/44/194 57/45/195
f 3/49/196 2/43/197 57/45/198
f 4/54/199 3/49/200 57/45/201
f 5/57/202 4/54/203 57/45/204
f 6/56/205 5/57/206 57/45/207
f 7/53/208 6/56/209 57/45/210
f 8/48/211 7/53/212 57/45/213
f 1/44/214 8/48/215 57/45/216
f 49/64/217 50/65/218 58/66/219
f 50/65/220 51/69/221 58/66/222
f 51/69/223 52/74/224 58/66/225
f 52/74/226 53/77/227 58/66/228
f 53/77/229 54/78/230 58/66/231
f 54/78/232 55/75/233 58/66/234
f 55/75/235 56/70/236 58/66/237
f 56/70/238 49/64/239 58/66/240
