# This file uses meters as units for non-parametric coordinates.

mtllib PlataA.mtl
g default
v 15.687564 -38.297805 -15.687564
v 0.000000 -38.297805 -22.185564
v -15.687564 -38.297805 -15.687564
v -22.185564 -38.297805 0.000000
v -15.687564 -38.297805 15.687564
v 0.000000 -38.297805 22.185566
v 15.687565 -38.297805 15.687565
v 22.185566 -38.297805 0.000000
v 36.270130 -25.767571 -36.270130
v -0.000002 -25.767571 -51.293729
v -36.270130 -25.767571 -36.270130
v -51.293729 -25.767571 -0.000001
v -36.270130 -25.767571 36.270130
v -0.000002 -25.767571 51.293729
v 36.270130 -25.767571 36.270130
v 51.293736 -25.767571 -0.000001
v 0.000000 -38.297805 0.000000
v 47.944076 -15.850842 -47.944076
v -0.000003 -15.850842 -67.803186
v -47.944076 -15.850842 -47.944076
v -67.803179 -15.850842 -0.000002
v -47.944076 -15.850842 47.944076
v -0.000003 -15.850842 67.803179
v 47.944076 -15.850842 47.944076
v 67.803192 -15.850842 -0.000002
v 25.196730 -22.264152 -25.196728
v 0.000001 -22.264152 -35.633564
v -25.196728 -22.264152 -25.196728
v -35.633557 -22.264152 -0.000003
v -25.196728 -22.264152 25.196728
v 0.000001 -22.264152 35.633557
v 25.196731 -22.264152 25.196728
v 35.633571 -22.264152 -0.000003
v 0.000006 -22.264152 -0.000003
v 55.339471 -3.280753 -55.339471
v 54.971586 -2.304998 -54.971586
v -0.000005 -3.280753 -78.261858
v -0.000005 -2.304998 -77.741586
v -55.339471 -3.280753 -55.339471
v -54.971586 -2.304998 -54.971586
v -78.261851 -3.280753 -0.000001
v -77.741579 -2.304998 -0.000001
v -55.339471 -3.280753 55.339471
v -54.971586 -2.304998 54.971586
v -0.000005 -3.280753 78.261851
v -0.000005 -2.304998 77.741579
v 55.339474 -3.280753 55.339477
v 54.971589 -2.304998 54.971592
v 78.261865 -3.280753 -0.000001
v 77.741593 -2.304998 -0.000001
v 53.399398 -2.304998 -53.399398
v 52.593072 -2.575619 -52.593072
v -0.000004 -2.575619 -74.377860
v -0.000005 -2.304998 -75.518182
v -52.593072 -2.575619 -52.593072
v -53.399398 -2.304998 -53.399398
v -74.377854 -2.575619 -0.000002
v -75.518175 -2.304998 -0.000002
v -52.593072 -2.575619 52.593072
v -53.399398 -2.304998 53.399398
v -0.000004 -2.575619 74.377854
v -0.000005 -2.304998 75.518175
v 52.593076 -2.575619 52.593076
v 53.399408 -2.304998 53.399408
v 74.377867 -2.575619 -0.000002
v 75.518188 -2.304998 -0.000002
vt 0.443274 0.112123
vt 0.533427 0.112123
vt 0.533427 0.199408
vt 0.414257 0.199408
vt 0.494434 0.001835
vt 0.533427 0.001835
vt 0.623579 0.112123
vt 0.652596 0.199408
vt 0.533427 0.310047
vt 0.395875 0.310047
vt 0.572419 0.001835
vt 0.670978 0.310047
vt 0.396790 0.318635
vt 0.533427 0.318635
vt 0.670063 0.318635
vt 0.725872 0.112123
vt 0.816025 0.112123
vt 0.816025 0.199408
vt 0.696855 0.199408
vt 0.777032 0.001835
vt 0.816025 0.001835
vt 0.906177 0.112123
vt 0.935194 0.199408
vt 0.816025 0.310047
vt 0.678473 0.310047
vt 0.855017 0.001835
vt 0.953576 0.310047
vt 0.679388 0.318635
vt 0.816025 0.318635
vt 0.952661 0.318635
vt 0.388519 0.394298
vt 0.388519 0.525022
vt 0.215225 0.525022
vt 0.215225 0.462394
vt 0.390901 0.392293
vt 0.390901 0.525022
vt 0.388519 0.655747
vt 0.215225 0.587651
vt 0.390901 0.657751
vt 0.570331 0.324631
vt 0.570331 0.455356
vt 0.397037 0.455356
vt 0.397037 0.392727
vt 0.572713 0.322627
vt 0.572713 0.455356
vt 0.570331 0.586081
vt 0.397037 0.517985
vt 0.572713 0.588085
vt 0.271643 0.734094
vt 0.310636 0.750245
vt 0.271643 0.789238
vt 0.271643 0.661743
vt 0.361796 0.699085
vt 0.326787 0.789238
vt 0.232650 0.750245
vt 0.181491 0.699085
vt 0.310636 0.828231
vt 0.216499 0.789238
vt 0.271643 0.844382
vt 0.232650 0.828231
vt 0.361796 0.879391
vt 0.271643 0.916733
vt 0.181491 0.879391
vt 0.519789 0.687685
vt 0.545731 0.750313
vt 0.457160 0.750313
vt 0.519789 0.812942
vt 0.457160 0.661743
vt 0.457160 0.838884
vt 0.394532 0.687685
vt 0.394532 0.812942
vt 0.368590 0.750313
vt 0.331862 0.331705
vt 0.195226 0.388302
vt 0.195226 0.382776
vt 0.327955 0.327797
vt 0.058589 0.331705
vt 0.062497 0.327797
vt 0.325950 0.325793
vt 0.195226 0.379941
vt 0.388459 0.195068
vt 0.382933 0.195068
vt 0.001992 0.195068
vt 0.007518 0.195068
vt 0.064501 0.325793
vt 0.331862 0.058432
vt 0.327955 0.062339
vt 0.058589 0.058432
vt 0.062497 0.062339
vt 0.195226 0.001835
vt 0.195226 0.007361
vt 0.195226 0.010196
vt 0.325950 0.064344
vt 0.064501 0.064344
vt 0.998008 0.370025
vt 0.998008 0.460178
vt 0.910723 0.460178
vt 0.910723 0.341009
vt 0.998008 0.550331
vt 0.910723 0.579347
vt 0.800084 0.460178
vt 0.800084 0.322627
vt 0.800084 0.597729
vt 0.791496 0.323541
vt 0.791496 0.460178
vt 0.791496 0.596815
vt 0.578848 0.550331
vt 0.578848 0.460178
vt 0.666133 0.460178
vt 0.666133 0.579347
vt 0.578848 0.370025
vt 0.666133 0.341009
vt 0.776772 0.460178
vt 0.776772 0.597729
vt 0.776772 0.322627
vt 0.785360 0.596815
vt 0.785360 0.460178
vt 0.785360 0.323541
vt 0.175286 0.657734
vt 0.175286 0.788459
vt 0.001992 0.788459
vt 0.001992 0.725831
vt 0.175286 0.919184
vt 0.001992 0.851088
vt 0.035796 0.653743
vt 0.035796 0.523018
vt 0.209090 0.523018
vt 0.209090 0.585647
vt 0.035796 0.392293
vt 0.209090 0.460389
vn 0.247490 -0.936748 -0.247490
vn -0.000000 -0.936748 -0.350003
vn 0.000000 -0.886365 -0.462986
vn 0.327381 -0.886365 -0.327381
vn -0.247490 -0.936748 -0.247490
vn -0.327381 -0.886365 -0.327381
vn -0.350003 -0.936748 -0.000000
vn -0.462987 -0.886365 -0.000000
vn -0.247490 -0.936748 0.247490
vn -0.327381 -0.886365 0.327381
vn 0.000000 -0.936748 0.350003
vn 0.000000 -0.886365 0.462987
vn 0.247490 -0.936748 0.247490
vn 0.327381 -0.886365 0.327381
vn 0.350003 -0.936748 0.000000
vn 0.462986 -0.886365 -0.000000
vn 0.000000 -1.000000 -0.000000
vn 0.000000 -0.747726 -0.664007
vn 0.469524 -0.747726 -0.469524
vn -0.469524 -0.747726 -0.469524
vn -0.664007 -0.747726 0.000000
vn -0.469524 -0.747726 0.469524
vn -0.000000 -0.747726 0.664007
vn 0.469524 -0.747726 0.469524
vn 0.664007 -0.747726 -0.000000
vn -0.275801 0.920797 0.275801
vn -0.000000 0.920797 0.390042
vn 0.000000 1.000000 -0.000000
vn 0.275801 0.920797 0.275801
vn 0.390042 0.920797 0.000000
vn 0.275801 0.920797 -0.275801
vn 0.000000 0.920797 -0.390042
vn -0.275801 0.920797 -0.275801
vn -0.390042 0.920797 0.000000
vn 0.828777 0.441905 -0.343291
vn 0.828777 0.441905 -0.343291
vn 0.828777 0.441905 -0.343291
vn 0.828777 0.441905 -0.343291
vn 0.343291 0.441902 -0.828779
vn 0.343291 0.441902 -0.828779
vn 0.343291 0.441902 -0.828779
vn 0.343291 0.441902 -0.828779
vn -0.343292 0.441903 -0.828778
vn -0.343292 0.441903 -0.828778
vn -0.343292 0.441903 -0.828778
vn -0.343292 0.441903 -0.828778
vn -0.828779 0.441900 -0.343292
vn -0.828779 0.441900 -0.343292
vn -0.828779 0.441900 -0.343292
vn -0.828779 0.441900 -0.343292
vn -0.828779 0.441900 0.343292
vn -0.828779 0.441900 0.343292
vn -0.828779 0.441900 0.343292
vn -0.828779 0.441900 0.343292
vn -0.343291 0.441903 0.828778
vn -0.343291 0.441903 0.828778
vn -0.343291 0.441903 0.828778
vn -0.343291 0.441903 0.828778
vn 0.343291 0.441902 0.828779
vn 0.343291 0.441902 0.828779
vn 0.343291 0.441902 0.828779
vn 0.343291 0.441902 0.828779
vn 0.828779 0.441900 0.343293
vn 0.828779 0.441900 0.343293
vn 0.828779 0.441900 0.343293
vn 0.828779 0.441900 0.343293
vn -0.041123 0.998307 0.041123
vn -0.313312 0.896477 0.313312
vn -0.443089 0.896477 -0.000000
vn -0.058157 0.998307 -0.000000
vn -0.000000 0.998307 0.058157
vn 0.000000 0.896477 0.443089
vn 0.041123 0.998307 0.041123
vn 0.313312 0.896477 0.313312
vn 0.058157 0.998307 0.000000
vn 0.443090 0.896477 0.000000
vn 0.041123 0.998307 -0.041123
vn 0.313312 0.896477 -0.313312
vn 0.000000 0.998307 -0.058157
vn 0.000000 0.896477 -0.443089
vn -0.041123 0.998307 -0.041123
vn -0.313312 0.896477 -0.313312
vn 0.303403 -0.609443 -0.732479
vn 0.303403 -0.609443 -0.732479
vn -0.303403 -0.609443 -0.732479
vn -0.303403 -0.609443 -0.732479
vn -0.732479 -0.609443 -0.303403
vn -0.732479 -0.609443 -0.303403
vn -0.732479 -0.609443 0.303403
vn -0.732479 -0.609443 0.303403
vn -0.303403 -0.609443 0.732479
vn -0.303403 -0.609443 0.732479
vn 0.303403 -0.609444 0.732479
vn 0.303403 -0.609443 0.732479
vn 0.732479 -0.609443 0.303403
vn 0.732479 -0.609443 0.303403
vn 0.732479 -0.609444 -0.303403
vn 0.732479 -0.609444 -0.303403
vn 0.000000 1.000000 0.000000
vn 0.000000 1.000000 0.000000
vn 0.000000 1.000000 -0.000000
vn 0.000000 1.000000 0.000000
vn 0.000000 1.000000 0.000000
vn 0.000000 1.000000 0.000000
vn 0.000000 1.000000 -0.000000
vn 0.000000 1.000000 -0.000000
s 1
g PlatoA
usemtl initialShadingGroup
f 1/50/1 2/49/2 10/52/3 9/53/4
f 2/49/2 3/55/5 11/56/6 10/52/3
f 3/5/5 4/6/7 12/2/8 11/1/6
f 4/6/7 5/11/9 13/7/10 12/2/8
f 5/60/9 6/59/11 14/62/12 13/63/10
f 6/59/11 7/57/13 15/61/14 14/62/12
f 7/20/13 8/21/15 16/17/16 15/16/14
f 8/21/15 1/26/1 9/22/4 16/17/16
f 2/49/2 1/50/1 17/51/17
f 3/55/5 2/49/2 17/51/17
f 4/58/7 3/55/5 17/51/17
f 5/60/9 4/58/7 17/51/17
f 6/59/11 5/60/9 17/51/17
f 7/57/13 6/59/11 17/51/17
f 8/54/15 7/57/13 17/51/17
f 1/50/1 8/54/15 17/51/17
f 9/95/4 10/96/3 19/97/18 18/98/19
f 10/96/3 11/99/6 20/100/20 19/97/18
f 11/1/6 12/2/8 21/3/21 20/4/20
f 12/2/8 13/7/10 22/8/22 21/3/21
f 13/107/10 14/108/12 23/109/23 22/110/22
f 14/108/12 15/111/14 24/112/24 23/109/23
f 15/16/14 16/17/16 25/18/25 24/19/24
f 16/17/16 9/22/4 18/23/19 25/18/25
s 2
f 26/64/26 27/65/27 34/66/28
f 27/65/27 28/67/29 34/66/28
f 28/67/29 29/69/30 34/66/28
f 29/69/30 30/71/31 34/66/28
f 30/71/31 31/72/32 34/66/28
f 31/72/32 32/70/33 34/66/28
f 32/70/33 33/68/34 34/66/28
f 33/68/34 26/64/26 34/66/28
s off
f 35/27/35 36/30/36 50/29/37 49/24/38
f 36/104/39 35/102/40 37/101/41 38/105/42
f 38/105/43 37/101/44 39/103/45 40/106/46
f 40/13/47 39/10/48 41/9/49 42/14/50
f 42/14/51 41/9/52 43/12/53 44/15/54
f 44/116/55 43/114/56 45/113/57 46/117/58
f 46/117/59 45/113/60 47/115/61 48/118/62
f 48/28/63 47/25/64 49/24/65 50/29/66
s 2
f 51/48/67 52/46/68 65/41/69 66/45/70
f 52/79/68 51/76/67 54/75/71 53/80/72
f 53/80/72 54/75/71 56/78/73 55/85/74
f 55/31/74 56/35/73 58/36/75 57/32/76
f 57/32/76 58/36/75 60/39/77 59/37/78
f 59/94/78 60/89/77 62/91/79 61/92/80
f 61/92/80 62/91/79 64/87/81 63/93/82
f 63/40/82 64/44/81 66/45/70 65/41/69
s 1
f 18/98/19 19/97/18 37/101/83 35/102/84
f 19/97/18 20/100/20 39/103/85 37/101/86
f 20/4/20 21/3/21 41/9/87 39/10/88
f 21/3/21 22/8/22 43/12/89 41/9/90
f 22/110/22 23/109/23 45/113/91 43/114/92
f 23/109/23 24/112/24 47/115/93 45/113/94
f 24/19/24 25/18/25 49/24/95 47/25/96
f 25/18/25 18/23/19 35/27/97 49/24/98
s 2
f 52/119/68 53/120/72 27/121/27 26/122/26
f 53/120/72 55/123/74 28/124/29 27/121/27
f 55/31/74 57/32/76 29/33/30 28/34/29
f 57/32/76 59/37/78 30/38/31 29/33/30
f 59/125/78 61/126/80 31/127/32 30/128/31
f 61/126/80 63/129/82 32/130/33 31/127/32
f 63/40/82 65/41/69 33/42/34 32/43/33
f 65/41/69 52/46/68 26/47/26 33/42/34
f 36/73/99 38/74/100 54/75/71 51/76/67
f 38/74/100 40/77/101 56/78/73 54/75/71
f 40/77/101 42/83/102 58/84/75 56/78/73
f 42/83/102 44/88/103 60/89/77 58/84/75
f 44/88/103 46/90/104 62/91/79 60/89/77
f 46/90/104 48/86/105 64/87/81 62/91/79
f 48/86/105 50/81/106 66/82/70 64/87/81
f 50/81/106 36/73/99 51/76/67 66/82/70
