# This file uses centimeters as units for non-parametric coordinates.

mtllib gomita.mtl
g default
v 0.292293 0.000000 -0.353553
v 0.000000 0.000000 -0.500000
v -0.292293 0.000000 -0.353553
v -0.413365 0.000000 0.000000
v -0.292293 0.000000 0.353553
v 0.000000 0.000000 0.500000
v 0.292293 0.000000 0.353553
v 0.413365 0.000000 0.000000
v 0.377904 0.181745 -0.457107
v 0.000000 0.181745 -0.646447
v -0.377904 0.181745 -0.457107
v -0.534437 0.181745 0.000000
v -0.377904 0.181745 0.457107
v 0.000000 0.181745 0.646447
v 0.377904 0.181745 0.457107
v 0.534437 0.181745 0.000000
v 0.584587 0.257026 -0.707107
v 0.000000 0.257026 -1.000000
v -0.584587 0.257026 -0.707107
v -0.826730 0.257026 0.000000
v -0.584587 0.257026 0.707107
v 0.000000 0.257026 1.000000
v 0.584587 0.257026 0.707107
v 0.826730 0.257026 0.000000
v 0.791269 0.181745 -0.957107
v 0.000000 0.181745 -1.353553
v -0.791269 0.181745 -0.957107
v -1.119024 0.181745 0.000000
v -0.791269 0.181745 0.957107
v 0.000000 0.181745 1.353553
v 0.791269 0.181745 0.957107
v 1.119024 0.181745 0.000000
v 0.791269 -0.181745 -0.957107
v 0.000000 -0.181745 -1.353553
v -0.791269 -0.181745 -0.957107
v -1.119024 -0.181745 0.000000
v -0.791269 -0.181745 0.957107
v 0.000000 -0.181745 1.353553
v 0.791269 -0.181745 0.957107
v 1.119024 -0.181745 0.000000
v 0.584587 -0.257026 -0.707107
v 0.000000 -0.257026 -1.000000
v -0.584587 -0.257026 -0.707107
v -0.826730 -0.257026 0.000000
v -0.584587 -0.257026 0.707107
v 0.000000 -0.257026 1.000000
v 0.584587 -0.257026 0.707107
v 0.826730 -0.257026 0.000000
v 0.377904 -0.181745 -0.457107
v 0.000000 -0.181745 -0.646447
v -0.377904 -0.181745 -0.457107
v -0.534437 -0.181745 0.000000
v -0.377904 -0.181745 0.457107
v 0.000000 -0.181745 0.646447
v 0.377904 -0.181745 0.457107
v 0.534437 -0.181745 0.000000
v 0.847775 0.061787 -1.025455
v 0.847775 -0.061787 -1.025455
v 0.000000 0.061787 -1.450213
v 0.000000 -0.061787 -1.450213
v -0.847775 0.061787 -1.025455
v -0.847775 -0.061787 -1.025455
v -1.198935 0.061787 0.000000
v -1.198935 -0.061787 0.000000
v -0.847775 0.061787 1.025455
v -0.847775 -0.061787 1.025455
v 0.000000 0.061787 1.450213
v 0.000000 -0.061787 1.450213
v 0.847775 0.061787 1.025455
v 0.847775 -0.061787 1.025455
v 1.198935 0.061787 0.000000
v 1.198935 -0.061787 0.000000
vt 0.879209 0.237525
vt 0.886516 0.309752
vt 0.861412 0.300318
vt 0.855551 0.250881
vt 0.915368 0.211880
vt 0.928284 0.320247
vt 0.828476 0.192493
vt 0.819959 0.220715
vt 0.837921 0.145699
vt 0.730854 0.329396
vt 0.723547 0.257169
vt 0.748652 0.266603
vt 0.754512 0.316040
vt 0.694695 0.355041
vt 0.681780 0.246674
vt 0.781587 0.374428
vt 0.790105 0.346206
vt 0.772143 0.421222
vt 0.263324 0.292140
vt 0.296442 0.320351
vt 0.216897 0.321745
vt 0.222488 0.367900
vt 0.165356 0.305948
vt 0.140150 0.343012
vt 0.138898 0.253994
vt 0.097654 0.260253
vt 0.153017 0.196319
vt 0.119899 0.168108
vt 0.199444 0.166714
vt 0.193853 0.120558
vt 0.250985 0.182510
vt 0.276190 0.145447
vt 0.329951 0.348873
vt 0.854565 0.840700
vt 0.025157 0.812041
vt 0.025240 0.842199
vt 0.736333 0.840946
vt 0.736266 0.811367
vt 0.145435 0.812543
vt 0.145417 0.841889
vt 0.522270 0.409529
vt 0.263667 0.812297
vt 0.438718 0.428707
vt 0.263734 0.841876
vt 0.391759 0.508386
vt 0.381816 0.812057
vt 0.408903 0.601888
vt 0.381890 0.841656
vt 0.480103 0.654433
vt 0.499962 0.811821
vt 0.563654 0.635255
vt 0.500038 0.841422
vt 0.610613 0.555576
vt 0.514636 0.455317
vt 0.462253 0.467123
vt 0.432675 0.516927
vt 0.443228 0.575548
vt 0.487736 0.608646
vt 0.540120 0.596840
vt 0.569698 0.547035
vt 0.618110 0.811587
vt 0.618184 0.841187
vt 0.029736 0.873484
vt 0.145644 0.872575
vt 0.846062 0.366503
vt 0.834322 0.339864
vt 0.868902 0.407044
vt 0.764001 0.200418
vt 0.775742 0.227057
vt 0.741162 0.159877
vt 0.263708 0.872550
vt 0.381856 0.872339
vt 0.500003 0.872105
vt 0.618149 0.871869
vt 0.736284 0.871609
vt 0.854356 0.780668
vt 0.029785 0.781257
vt 0.145706 0.782115
vt 0.263716 0.781634
vt 0.381852 0.781374
vt 0.277443 0.234464
vt 0.318686 0.228206
vt 0.499997 0.781138
vt 0.593470 0.462074
vt 0.559144 0.488415
vt 0.618144 0.780905
vt 0.736292 0.780693
vt 0.529973 0.363211
vt 0.652004 0.564195
vt 0.628182 0.435415
vt 0.587474 0.674104
vt 0.472400 0.700752
vt 0.374190 0.628547
vt 0.350369 0.499767
vt 0.414899 0.389858
vt 0.301674 0.107945
vt 0.360403 0.221855
vt 0.188179 0.073874
vt 0.086389 0.139586
vt 0.055938 0.266603
vt 0.114666 0.380514
vt 0.228162 0.414584
vt 0.974760 0.811044
vt 0.970215 0.871986
vt 0.854294 0.871128
vt 0.974843 0.841202
vt 0.854583 0.811354
vt 0.970264 0.779759
vn 0.000000 -0.000000 1.000000
vn -0.770718 -0.000000 0.637176
vn -0.308198 0.916566 0.254797
vn 0.000000 0.930662 0.365879
vn 0.770718 -0.000000 0.637176
vn 0.308198 0.916566 0.254797
vn 1.000000 0.000000 0.000000
vn 0.429450 0.903091 0.000000
vn 0.770718 -0.000000 -0.637176
vn 0.308198 0.916566 -0.254797
vn 0.000000 -0.000000 -1.000000
vn 0.000000 0.930662 -0.365879
vn -0.770718 -0.000000 -0.637176
vn -0.308198 0.916566 -0.254797
vn -1.000000 -0.000000 0.000000
vn -0.429450 0.903091 0.000000
vn 0.070894 0.995761 -0.058610
vn 0.000000 0.996553 -0.082953
vn -0.070894 0.995761 -0.058610
vn -0.100179 0.994969 0.000000
vn -0.070894 0.995761 0.058610
vn -0.000000 0.996553 0.082953
vn 0.070894 0.995760 0.058610
vn 0.100179 0.994969 -0.000000
vn 0.395144 0.858570 -0.326678
vn 0.000000 0.880606 -0.473850
vn -0.395145 0.858570 -0.326678
vn -0.545502 0.838110 -0.000000
vn -0.395144 0.858570 0.326678
vn -0.000000 0.880606 0.473850
vn 0.395144 0.858570 0.326678
vn 0.545502 0.838110 -0.000000
vn 0.000000 -0.880606 -0.473850
vn 0.395144 -0.858570 -0.326678
vn 0.070894 -0.995761 -0.058610
vn 0.000000 -0.996553 -0.082953
vn -0.395145 -0.858570 -0.326678
vn -0.070894 -0.995761 -0.058610
vn -0.545502 -0.838110 -0.000000
vn -0.100179 -0.994969 0.000000
vn -0.395144 -0.858570 0.326678
vn -0.070894 -0.995761 0.058610
vn -0.000000 -0.880606 0.473850
vn -0.000000 -0.996553 0.082953
vn 0.395144 -0.858570 0.326678
vn 0.070894 -0.995761 0.058610
vn 0.545502 -0.838110 -0.000000
vn 0.100179 -0.994969 -0.000000
vn -0.308198 -0.916566 0.254797
vn 0.000000 -0.930662 0.365879
vn 0.308198 -0.916566 0.254797
vn 0.429450 -0.903091 0.000000
vn 0.308198 -0.916566 -0.254797
vn 0.000000 -0.930662 -0.365879
vn -0.308198 -0.916566 -0.254797
vn -0.429450 -0.903091 0.000000
vn 0.731079 0.316570 -0.604406
vn 0.731079 -0.316570 -0.604406
vn 0.000000 -0.347307 -0.937751
vn 0.000000 0.347307 -0.937751
vn 0.956182 0.292773 -0.000000
vn 0.956182 -0.292773 -0.000000
vn -0.731080 -0.316570 -0.604406
vn -0.731080 0.316570 -0.604406
vn -0.956182 -0.292772 -0.000000
vn -0.956182 0.292772 -0.000000
vn -0.731080 -0.316570 0.604406
vn -0.731080 0.316570 0.604406
vn 0.000000 -0.347307 0.937751
vn 0.000000 0.347307 0.937751
vn 0.731079 -0.316570 0.604406
vn 0.731079 0.316570 0.604406
s 1
g pTorus1
usemtl initialShadingGroup
f 2/65/1 1/16/2 9/17/3 10/66/4
f 3/2/5 2/65/1 10/66/4 11/3/6
f 4/1/7 3/2/5 11/3/6 12/4/8
f 5/7/9 4/1/7 12/4/8 13/8/10
f 6/68/11 5/7/9 13/8/10 14/69/12
f 7/11/13 6/68/11 14/69/12 15/12/14
f 8/10/15 7/11/13 15/12/14 16/13/16
f 1/16/2 8/10/15 16/13/16 9/17/3
f 10/19/4 9/81/3 17/82/17 18/20/18
f 11/21/6 10/19/4 18/20/18 19/22/19
f 12/23/8 11/21/6 19/22/19 20/24/20
f 13/25/10 12/23/8 20/24/20 21/26/21
f 14/27/12 13/25/10 21/26/21 22/28/22
f 15/29/14 14/27/12 22/28/22 23/30/23
f 16/31/16 15/29/14 23/30/23 24/32/24
f 9/81/3 16/31/16 24/32/24 17/82/17
f 18/20/18 17/82/17 25/97/25 26/33/26
f 19/22/19 18/20/18 26/33/26 27/102/27
f 20/24/20 19/22/19 27/102/27 28/101/28
f 21/26/21 20/24/20 28/101/28 29/100/29
f 22/28/22 21/26/21 29/100/29 30/99/30
f 23/30/23 22/28/22 30/99/30 31/98/31
f 24/32/24 23/30/23 31/98/31 32/96/32
f 17/82/17 24/32/24 32/96/32 25/97/25
f 34/88/33 33/90/34 41/84/35 42/41/36
f 35/95/37 34/88/33 42/41/36 43/43/38
f 36/94/39 35/95/37 43/43/38 44/45/40
f 37/93/41 36/94/39 44/45/40 45/47/42
f 38/92/43 37/93/41 45/47/42 46/49/44
f 39/91/45 38/92/43 46/49/44 47/51/46
f 40/89/47 39/91/45 47/51/46 48/53/48
f 33/90/34 40/89/47 48/53/48 41/84/35
f 42/41/36 41/84/35 49/85/49 50/54/50
f 43/43/38 42/41/36 50/54/50 51/55/51
f 44/45/40 43/43/38 51/55/51 52/56/52
f 45/47/42 44/45/40 52/56/52 53/57/53
f 46/49/44 45/47/42 53/57/53 54/58/54
f 47/51/46 46/49/44 54/58/54 55/59/55
f 48/53/48 47/51/46 55/59/55 56/60/56
f 41/84/35 48/53/48 56/60/56 49/85/49
f 50/67/50 49/18/49 1/16/2 2/65/1
f 51/6/51 50/67/50 2/65/1 3/2/5
f 52/5/52 51/6/51 3/2/5 4/1/7
f 53/9/53 52/5/52 4/1/7 5/7/9
f 54/70/54 53/9/53 5/7/9 6/68/11
f 55/15/55 54/70/54 6/68/11 7/11/13
f 56/14/56 55/15/55 7/11/13 8/10/15
f 49/18/49 56/14/56 8/10/15 1/16/2
f 57/34/57 58/107/58 60/103/59 59/106/60
f 58/107/58 57/34/57 71/37/61 72/38/62
f 59/36/60 60/35/59 62/39/63 61/40/64
f 61/40/64 62/39/63 64/42/65 63/44/66
f 63/44/66 64/42/65 66/46/67 65/48/68
f 65/48/68 66/46/67 68/50/69 67/52/70
f 67/52/70 68/50/69 70/61/71 69/62/72
f 69/62/72 70/61/71 72/38/62 71/37/61
f 26/104/26 25/105/25 57/34/57 59/106/60
f 27/64/27 26/63/26 59/36/60 61/40/64
f 28/71/28 27/64/27 61/40/64 63/44/66
f 29/72/29 28/71/28 63/44/66 65/48/68
f 30/73/30 29/72/29 65/48/68 67/52/70
f 31/74/31 30/73/30 67/52/70 69/62/72
f 32/75/32 31/74/31 69/62/72 71/37/61
f 25/105/25 32/75/32 71/37/61 57/34/57
f 60/103/59 58/107/58 33/76/34 34/108/33
f 62/39/63 60/35/59 34/77/33 35/78/37
f 64/42/65 62/39/63 35/78/37 36/79/39
f 66/46/67 64/42/65 36/79/39 37/80/41
f 68/50/69 66/46/67 37/80/41 38/83/43
f 70/61/71 68/50/69 38/83/43 39/86/45
f 72/38/62 70/61/71 39/86/45 40/87/47
f 58/107/58 72/38/62 40/87/47 33/76/34
